<svg width="300" height="59" xmlns="http://www.w3.org/2000/svg">

 <g>
  <title>Layer 1</title>
  <path id="svg_1" fill="#ec008c" d="m29.4,0c16.2,0 29.4,13.2 29.4,29.5s-13.2,29.5 -29.4,29.5s-29.4,-13.3 -29.4,-29.5c0,-16.3 13.2,-29.5 29.4,-29.5"/>
  <g id="svg_2" fill="#fff">
   <path id="svg_3" d="m16.3,42.6c-0.2,0 -0.5,-0.1 -0.6,-0.3c-0.3,-0.4 -0.3,-0.9 0.1,-1.2l10.2,-9.4l0.1,-0.1c0.7,-0.5 1,-1 1,-1.5c0.1,-0.7 -0.5,-1.3 -0.5,-1.4l-1.5,-1.5c-0.9,-0.8 -1.1,-2 -1.3,-3.3c-0.2,-1.5 -0.5,-3.3 -2.1,-4.8c-1.7,-1.9 -4.3,-2.9 -6,-2.9c-0.8,0 -1.5,0.2 -1.9,0.5c-0.6,0.6 -0.6,1.8 -0.1,3.4s1.5,3.3 2.7,4.5c1.9,1.9 3.5,2.1 5,2.3c1.1,0.2 2.1,0.3 2.9,1.2l1.3,1.3c0.4,0.5 0.2,1 0,1.2c-0.3,0.3 -0.9,0.3 -1.2,0l-1.3,-1.3c-0.4,-0.4 -0.9,-0.5 -1.9,-0.6c-1.5,-0.2 -3.7,-0.5 -6,-2.8c-1.3,-1.4 -2.5,-3.3 -3.1,-5.2c-0.7,-2.3 -0.5,-4.1 0.5,-5.1c0.7,-0.7 1.8,-1 3.1,-1c2,0.1 5,1 7.3,3.5c1.9,2 2.3,4.1 2.6,5.8c0.2,1 0.3,1.9 0.8,2.3l1.5,1.5c0.1,0.1 1.1,1.2 1,2.7c-0.1,1 -0.6,2 -1.7,2.8l-10.2,9.4c-0.3,-0.1 -0.5,0 -0.7,0m3.6,3.6c-0.2,0 -0.4,-0.1 -0.6,-0.2c-0.4,-0.3 -0.4,-0.9 -0.1,-1.2l8.1,-9c0.3,-0.4 0.9,-0.4 1.2,-0.1c0.4,0.3 0.4,0.9 0.1,1.2l-8.1,9c-0.1,0.2 -0.4,0.3 -0.6,0.3"/>
   <path id="svg_4" d="m17.8,47.2c-0.9,0 -1.7,-0.3 -2.4,-1c-1.3,-1.3 -1.3,-3.5 0,-4.8c0.3,-0.3 0.9,-0.3 1.2,0s0.3,0.9 0,1.2c-0.6,0.6 -0.6,1.7 0,2.3s1.7,0.6 2.3,0c0.3,-0.3 0.9,-0.3 1.2,0s0.3,0.9 0,1.2c-0.5,0.8 -1.4,1.1 -2.3,1.1m18.7,-23.1c-0.2,0 -0.4,-0.1 -0.6,-0.3c-0.3,-0.3 -0.3,-0.9 0,-1.2l7.6,-7.7c0.3,-0.3 0.9,-0.3 1.2,0s0.3,0.9 0,1.2l-7.6,7.7c-0.2,0.2 -0.4,0.3 -0.6,0.3m1.9,1.9c-0.2,0 -0.4,-0.1 -0.6,-0.3c-0.3,-0.3 -0.3,-0.9 0,-1.2l7.6,-7.7c0.3,-0.3 0.9,-0.3 1.2,0s0.3,0.9 0,1.2l-7.6,7.7c-0.2,0.2 -0.4,0.3 -0.6,0.3"/>
   <path id="svg_5" d="m30.6,29.9c-0.2,0 -0.4,-0.1 -0.6,-0.3c-0.3,-0.3 -0.3,-0.9 0,-1.2l0.7,-0.7c0.6,-0.6 0.4,-1.7 0.4,-1.8c-0.5,-1.6 0.2,-2.8 0.6,-3.3l9.8,-9.9c0.3,-0.3 0.9,-0.3 1.2,0s0.3,0.9 0,1.2l-9.7,9.9c-0.1,0.1 -0.5,0.6 -0.2,1.6l0,0.1c0,0.1 0.5,2.1 -0.8,3.5l-0.7,0.7c-0.2,0.1 -0.4,0.2 -0.7,0.2m1.1,2.9c-0.2,0 -0.4,-0.1 -0.6,-0.3c-0.3,-0.3 -0.3,-0.9 0,-1.2l1.6,-1.6c1.3,-1.3 3.4,-0.9 3.4,-0.9l0.1,0c1,0.3 1.5,-0.1 1.6,-0.2l9.8,-9.9c0.3,-0.3 0.9,-0.3 1.2,0s0.3,0.9 0,1.2l-9.8,10c-0.5,0.5 -1.7,1.1 -3.3,0.6c-0.1,0 -1.2,-0.2 -1.8,0.4l-1.6,1.6c-0.2,0.2 -0.4,0.3 -0.6,0.3m7.1,13.3c-0.2,0 -0.5,-0.1 -0.6,-0.3l-7.3,-8.3c-0.3,-0.4 -0.3,-0.9 0.1,-1.2s0.9,-0.3 1.2,0.1l7.3,8.3c0.3,0.4 0.3,0.9 -0.1,1.2c-0.2,0.1 -0.4,0.2 -0.6,0.2m3.5,-3.6c-0.2,0 -0.4,-0.1 -0.6,-0.2l-8.7,-7.7c-0.4,-0.3 -0.4,-0.9 -0.1,-1.2c0.3,-0.4 0.9,-0.4 1.2,-0.1l8.7,7.7c0.4,0.3 0.4,0.9 0.1,1.2c-0.1,0.2 -0.3,0.3 -0.6,0.3"/>
   <path id="svg_6" d="m40.8,47.1c-0.9,0 -1.7,-0.3 -2.4,-1c-0.3,-0.3 -0.3,-0.9 0,-1.2s0.9,-0.3 1.2,0c0.6,0.6 1.7,0.6 2.3,0c0.3,-0.3 0.5,-0.7 0.5,-1.2c0,-0.4 -0.2,-0.9 -0.5,-1.2s-0.3,-0.9 0,-1.2s0.9,-0.3 1.2,0c1.3,1.3 1.3,3.5 0,4.8c-0.5,0.7 -1.4,1 -2.3,1m-9.3,-9.3c-0.2,0 -0.5,-0.1 -0.7,-0.3c-2.1,-2.6 -1.3,-4.6 -0.6,-5.4l1.5,-1.5c0.3,-0.3 0.9,-0.3 1.2,0s0.3,0.9 0,1.2l-1.5,1.5c-0.1,0.1 -0.9,1.1 0.7,3c0.3,0.4 0.3,0.9 -0.1,1.2c-0.1,0.2 -0.3,0.3 -0.5,0.3"/>
  </g>
  <text fill="#cccccc" xml:space="preserve" text-anchor="start" font-family="'Poppins ExtraBold'" font-size="34" id="svg_14" y="40" x="64.98438" stroke="null">èclats</text>
  <text transform="matrix(1 0 0 1 0 0)" xml:space="preserve" text-anchor="start" font-family="'Poppins ExtraBold'" font-size="34" id="svg_16" y="40" x="180.28125" fill="#ec008c">d'èden</text>
 </g>
</svg>